<?xml version="1.0" encoding="UTF-8"?>
<svg id="Layer_1" xmlns="http://www.w3.org/2000/svg" version="1.1" viewBox="0 0 1920 1080">
  <!-- Generator: Adobe Illustrator 29.8.4, SVG Export Plug-In . SVG Version: 2.1.1 Build 6)  -->
  <defs>
    <style>
      .st0 {
        fill: #fff;
      }
    </style>
  </defs>
  <rect x="-.13" y="-.11" width="1920" height="1080"/>
  <path class="st0" d="M1260.24,324.33h-591.97c-39.75,0-72.1,32.34-72.1,72.1v270.83c0,39.75,32.34,72.1,72.1,72.1h591.97c39.75,0,72.1-32.34,72.1-72.1v-270.83c0-39.75-32.34-72.1-72.1-72.1ZM1323.74,410.26v243.15c0,33.86-27.55,61.41-61.41,61.41h-596.14c-33.86,0-61.42-27.55-61.42-61.41v-243.15c0-33.86,27.55-61.41,61.42-61.41h596.14c33.86,0,61.41,27.55,61.41,61.41Z"/>
  <path class="st0" d="M1188.38,371.13h-448.26c-31.78,0-57.63,25.85-57.63,57.63v206.15c0,31.78,25.85,57.63,57.63,57.63h448.26c31.78,0,57.63-25.85,57.63-57.63v-206.15c0-31.78-25.85-57.63-57.63-57.63ZM1237.42,442.6v178.47c0,25.89-21.06,46.95-46.95,46.95h-452.42c-25.89,0-46.95-21.06-46.95-46.95v-178.47c0-25.89,21.06-46.95,46.95-46.95h452.42c25.89,0,46.95,21.06,46.95,46.95Z"/>
  <path class="st0" d="M1121.42,417.93h-314.32c-23.8,0-43.17,19.37-43.17,43.17v141.47c0,23.8,19.37,43.17,43.17,43.17h314.32c23.8,0,43.17-19.37,43.17-43.17v-141.47c0-23.8-19.37-43.17-43.17-43.17ZM1155.99,474.95v113.79c0,17.91-14.57,32.49-32.49,32.49h-318.49c-17.91,0-32.49-14.57-32.49-32.49v-113.79c0-17.91,14.57-32.49,32.49-32.49h318.49c17.91,0,32.49,14.57,32.49,32.49Z"/>
  <path class="st0" d="M1049.56,469.02h-170.61c-15.83,0-28.7,12.88-28.7,28.7v68.22c0,15.83,12.88,28.71,28.7,28.71h170.61c15.83,0,28.71-12.88,28.71-28.71v-68.22c0-15.83-12.88-28.7-28.71-28.7ZM1051.65,570.13h-174.78c-9.94,0-18.02-8.09-18.02-18.02v-40.54c0-9.94,8.09-18.02,18.02-18.02h174.78c9.94,0,18.02,8.09,18.02,18.02v40.54c0,9.94-8.09,18.02-18.02,18.02Z"/>
</svg>